<svg width="2560" height="128" viewBox="0 0 2560 128" fill="none" xmlns="http://www.w3.org/2000/svg">
<rect width="2560" height="128" rx="16" fill="#1E2127"/>
<path d="M65.938 78.312L75.78 61.744L65.938 45.176H73.5L83.076 61.744L73.462 78.312H65.938ZM1434.09 48.4908H1439.8L1432.47 75.5H1424.93L1419.12 58.6241H1425.2L1428.63 69.3226L1434.09 48.4908Z" fill="#98C379"/>
<path d="M1503.09 75.5H1495.84L1488.87 54.8046H1495.51L1499.55 70.7841L1503.76 54.8046H1509.99L1503.09 75.5ZM1519.18 66.9451C1519.38 68.5691 1519.91 69.7643 1520.78 70.5308C1521.65 71.2973 1522.78 71.6805 1524.15 71.6805C1525.91 71.6805 1527.67 71.1089 1529.45 69.9656L1531.93 73.3174C1530.9 74.2009 1529.69 74.8959 1528.29 75.4026C1526.9 75.9092 1525.36 76.1626 1523.67 76.1626C1521.35 76.1626 1519.39 75.7014 1517.78 74.779C1516.17 73.8566 1514.96 72.5704 1514.14 70.9205C1513.32 69.2576 1512.91 67.3414 1512.91 65.1718C1512.91 63.1062 1513.31 61.2354 1514.1 59.5595C1514.89 57.8836 1516.05 56.5585 1517.57 55.5841C1519.09 54.6097 1520.9 54.1226 1523 54.1226C1524.97 54.1226 1526.67 54.5448 1528.13 55.3892C1529.6 56.2337 1530.73 57.4549 1531.52 59.0528C1532.31 60.6508 1532.71 62.5475 1532.71 64.7431C1532.71 65.5875 1532.67 66.3215 1532.59 66.9451H1519.18ZM1523 58.2538C1521.87 58.2538 1520.97 58.6631 1520.3 59.4815C1519.63 60.3 1519.24 61.5537 1519.11 63.2426H1526.71C1526.67 59.9168 1525.43 58.2538 1523 58.2538ZM1542.6 54.8046L1543.03 57.2015C1543.97 56.1492 1544.95 55.3762 1545.97 54.8826C1547 54.3759 1548.16 54.1226 1549.46 54.1226C1551.24 54.1226 1552.63 54.6682 1553.63 55.7595C1554.65 56.8378 1555.15 58.3513 1555.15 60.3V75.5H1548.99V62.0733C1548.99 61.2159 1548.93 60.5403 1548.8 60.0467C1548.68 59.553 1548.48 59.2022 1548.2 58.9944C1547.91 58.7735 1547.51 58.6631 1547.01 58.6631C1546.38 58.6631 1545.77 58.8644 1545.18 59.2672C1544.59 59.6569 1543.99 60.2415 1543.38 61.021V75.5H1537.22V54.8046H1542.6ZM1573.23 75.5H1565.98L1559.01 54.8046H1565.65L1569.68 70.7841L1573.89 54.8046H1580.13L1573.23 75.5ZM1588.83 58.5851C1588.83 57.8576 1589.02 57.1821 1589.38 56.5585C1589.76 55.9349 1590.26 55.4347 1590.88 55.0579C1591.52 54.6812 1592.21 54.4928 1592.95 54.4928C1593.69 54.4928 1594.37 54.6812 1594.99 55.0579C1595.62 55.4347 1596.11 55.9349 1596.47 56.5585C1596.84 57.1821 1597.02 57.8576 1597.02 58.5851C1597.02 59.3127 1596.84 59.9882 1596.47 60.6118C1596.11 61.2354 1595.62 61.7356 1594.99 62.1123C1594.37 62.4761 1593.69 62.6579 1592.95 62.6579C1592.21 62.6579 1591.52 62.4761 1590.88 62.1123C1590.26 61.7356 1589.76 61.2354 1589.38 60.6118C1589.02 59.9882 1588.83 59.3127 1588.83 58.5851ZM1588.83 72.0508C1588.83 71.3232 1589.02 70.6542 1589.38 70.0436C1589.76 69.42 1590.26 68.9263 1590.88 68.5626C1591.52 68.1988 1592.21 68.0169 1592.95 68.0169C1593.69 68.0169 1594.37 68.1988 1594.99 68.5626C1595.62 68.9263 1596.11 69.42 1596.47 70.0436C1596.84 70.6542 1597.02 71.3232 1597.02 72.0508C1597.02 72.7913 1596.84 73.4798 1596.47 74.1164C1596.11 74.74 1595.62 75.2337 1594.99 75.5974C1594.37 75.9742 1593.69 76.1626 1592.95 76.1626C1592.21 76.1626 1591.52 75.9742 1590.88 75.5974C1590.26 75.2337 1589.76 74.74 1589.38 74.1164C1589.02 73.4798 1588.83 72.7913 1588.83 72.0508ZM1614.79 61.859C1614.79 64.0415 1615.01 65.9903 1615.47 67.7051C1615.92 69.42 1616.68 71.1154 1617.75 72.7913C1618.81 74.4672 1620.29 76.3379 1622.19 78.4036L1618.61 81.6385C1616.45 79.7807 1614.63 77.8709 1613.15 75.9092C1611.68 73.9475 1610.54 71.8104 1609.74 69.4979C1608.95 67.1725 1608.55 64.6262 1608.55 61.859C1608.55 59.0918 1608.95 56.552 1609.74 54.2395C1610.54 51.914 1611.68 49.7704 1613.15 47.8087C1614.63 45.847 1616.45 43.9373 1618.61 42.0795L1622.19 45.3144C1620.4 47.2631 1618.96 49.0884 1617.88 50.7903C1616.82 52.4791 1616.03 54.2135 1615.53 55.9933C1615.03 57.7602 1614.79 59.7154 1614.79 61.859ZM1734.76 61.859C1734.76 59.7154 1734.51 57.7602 1734 55.9933C1733.51 54.2135 1732.72 52.4791 1731.64 50.7903C1730.58 49.0884 1729.15 47.2631 1727.35 45.3144L1730.94 42.0795C1733.1 43.9373 1734.91 45.847 1736.38 47.8087C1737.86 49.7704 1738.99 51.914 1739.79 54.2395C1740.59 56.552 1741 59.0918 1741 61.859C1741 64.6262 1740.59 67.1725 1739.79 69.4979C1738.99 71.8104 1737.86 73.9475 1736.38 75.9092C1734.91 77.8709 1733.1 79.7807 1730.94 81.6385L1727.35 78.4036C1729.25 76.3379 1730.73 74.4672 1731.8 72.7913C1732.86 71.1154 1733.62 69.42 1734.08 67.7051C1734.53 65.9903 1734.76 64.0415 1734.76 61.859Z" fill="white"/>
<path d="M126.915 54.181C128.149 54.181 129.286 54.3889 130.325 54.8046L129.176 63.4569H125.317V59.6374C124.174 59.8453 123.161 60.4689 122.277 61.5082C121.394 62.5475 120.699 63.8597 120.192 65.4446V71.3687H124.284V75.5H111.306V71.3687H114.034V58.8969H111.306V54.8046H118.731L119.861 59.4621C120.601 57.6822 121.543 56.3571 122.686 55.4867C123.843 54.6162 125.252 54.181 126.915 54.181ZM143.454 54.1226C145.546 54.1226 147.345 54.5773 148.852 55.4867C150.372 56.3831 151.528 57.6562 152.321 59.3062C153.113 60.9561 153.509 62.8853 153.509 65.0938C153.509 67.3933 153.107 69.3745 152.301 71.0374C151.509 72.6874 150.359 73.954 148.852 74.8374C147.345 75.7209 145.546 76.1626 143.454 76.1626C141.349 76.1626 139.544 75.7274 138.037 74.8569C136.53 73.9865 135.38 72.7263 134.587 71.0764C133.795 69.4135 133.399 67.4323 133.399 65.1328C133.399 62.9373 133.795 61.0145 134.587 59.3646C135.393 57.7017 136.549 56.4156 138.056 55.5062C139.576 54.5838 141.375 54.1226 143.454 54.1226ZM143.454 58.6631C142.194 58.6631 141.258 59.1827 140.648 60.2221C140.05 61.2614 139.751 62.8983 139.751 65.1328C139.751 67.4063 140.05 69.0627 140.648 70.1021C141.245 71.1284 142.181 71.6415 143.454 71.6415C144.727 71.6415 145.663 71.1219 146.26 70.0826C146.858 69.0432 147.157 67.3803 147.157 65.0938C147.157 62.8723 146.851 61.2484 146.241 60.2221C145.643 59.1827 144.714 58.6631 143.454 58.6631ZM164.027 56.9287C164.676 56.0583 165.462 55.3762 166.385 54.8826C167.307 54.3759 168.288 54.1226 169.327 54.1226C171.913 54.1226 173.829 55.0839 175.076 57.0067C176.336 58.9164 176.966 61.6121 176.966 65.0938C176.966 67.2504 176.641 69.1667 175.992 70.8426C175.355 72.5055 174.413 73.8111 173.166 74.7595C171.932 75.6949 170.438 76.1626 168.684 76.1626C167.645 76.1626 166.677 75.9417 165.781 75.5C164.897 75.0713 164.157 74.4477 163.559 73.6292L163.325 75.5H157.869V46.581L164.027 45.938V56.9287ZM167.067 71.6805C169.431 71.6805 170.613 69.5109 170.613 65.1718C170.613 63.5089 170.484 62.2032 170.224 61.2549C169.964 60.2935 169.594 59.6244 169.113 59.2477C168.645 58.8579 168.067 58.6631 167.379 58.6631C166.105 58.6631 164.988 59.4621 164.027 61.06V69.7903C164.43 70.4268 164.871 70.901 165.352 71.2128C165.846 71.5246 166.417 71.6805 167.067 71.6805ZM190.173 43.9697C190.874 43.9697 191.498 44.1256 192.044 44.4374C192.589 44.7362 193.018 45.152 193.33 45.6846C193.642 46.2043 193.797 46.7889 193.797 47.4385C193.797 48.088 193.642 48.6791 193.33 49.2118C193.018 49.7444 192.583 50.1667 192.024 50.4785C191.479 50.7773 190.861 50.9267 190.173 50.9267C189.471 50.9267 188.841 50.7773 188.283 50.4785C187.724 50.1667 187.289 49.7444 186.977 49.2118C186.665 48.6791 186.509 48.088 186.509 47.4385C186.509 46.7889 186.665 46.2043 186.977 45.6846C187.289 45.152 187.724 44.7362 188.283 44.4374C188.841 44.1256 189.471 43.9697 190.173 43.9697ZM193.895 71.2908H199.156V75.5H181.871V71.2908H187.737V59.0138H182.066V54.8046H193.895V71.2908ZM210.005 54.8046L210.434 57.2015C211.369 56.1492 212.35 55.3762 213.376 54.8826C214.403 54.3759 215.565 54.1226 216.865 54.1226C218.644 54.1226 220.035 54.6682 221.035 55.7595C222.048 56.8378 222.555 58.3513 222.555 60.3V75.5H216.397V62.0733C216.397 61.2159 216.332 60.5403 216.202 60.0467C216.085 59.553 215.884 59.2022 215.598 58.9944C215.312 58.7735 214.916 58.6631 214.409 58.6631C213.786 58.6631 213.175 58.8644 212.577 59.2672C211.993 59.6569 211.395 60.2415 210.785 61.021V75.5H204.627V54.8046H210.005ZM239.464 54.1226C242.075 54.1226 243.985 55.0774 245.193 56.9872C246.414 58.8839 247.025 61.5862 247.025 65.0938C247.025 67.2374 246.707 69.1472 246.07 70.8231C245.447 72.486 244.537 73.7916 243.342 74.74C242.147 75.6884 240.724 76.1626 239.074 76.1626C237.061 76.1626 235.424 75.4415 234.163 73.9995V83.4897L228.006 84.1328V54.8046H233.462L233.735 57.1236C234.54 56.0973 235.437 55.3438 236.424 54.8631C237.411 54.3694 238.425 54.1226 239.464 54.1226ZM237.554 58.6631C236.866 58.6631 236.242 58.8709 235.683 59.2867C235.138 59.6894 234.631 60.2805 234.163 61.06V69.7903C234.605 70.4398 235.06 70.914 235.528 71.2128C236.008 71.4986 236.567 71.6415 237.203 71.6415C238.334 71.6415 239.191 71.1284 239.776 70.1021C240.373 69.0757 240.672 67.4323 240.672 65.1718C240.672 63.5089 240.549 62.2032 240.302 61.2549C240.068 60.2935 239.724 59.6244 239.269 59.2477C238.814 58.8579 238.243 58.6631 237.554 58.6631ZM264.558 45.938C267.247 45.938 269.611 46.3732 271.651 47.2436L269.956 51.2579C268.579 50.7383 267.098 50.4785 265.513 50.4785C264.291 50.4785 263.415 50.6993 262.882 51.141C262.362 51.5827 262.102 52.3168 262.102 53.3431V56.1103H268.845L268.163 60.3779H262.102V75.5H255.983V60.3779H251.638V56.1103H255.983V53.1092C255.983 51.7321 256.308 50.5044 256.958 49.4262C257.62 48.3349 258.595 47.4839 259.881 46.8733C261.18 46.2497 262.739 45.938 264.558 45.938ZM280.103 66.9451C280.298 68.5691 280.83 69.7643 281.701 70.5308C282.571 71.2973 283.695 71.6805 285.072 71.6805C286.826 71.6805 288.593 71.1089 290.373 69.9656L292.847 73.3174C291.821 74.2009 290.606 74.8959 289.203 75.4026C287.813 75.9092 286.274 76.1626 284.585 76.1626C282.272 76.1626 280.311 75.7014 278.7 74.779C277.089 73.8566 275.874 72.5704 275.056 70.9205C274.237 69.2576 273.828 67.3414 273.828 65.1718C273.828 63.1062 274.224 61.2354 275.017 59.5595C275.809 57.8836 276.965 56.5585 278.485 55.5841C280.005 54.6097 281.818 54.1226 283.922 54.1226C285.884 54.1226 287.592 54.5448 289.047 55.3892C290.515 56.2337 291.646 57.4549 292.438 59.0528C293.231 60.6508 293.627 62.5475 293.627 64.7431C293.627 65.5875 293.588 66.3215 293.51 66.9451H280.103ZM283.922 58.2538C282.792 58.2538 281.889 58.6631 281.214 59.4815C280.551 60.3 280.155 61.5537 280.025 63.2426H287.625C287.586 59.9168 286.352 58.2538 283.922 58.2538ZM307.067 43.9697C307.769 43.9697 308.393 44.1256 308.938 44.4374C309.484 44.7362 309.913 45.152 310.224 45.6846C310.536 46.2043 310.692 46.7889 310.692 47.4385C310.692 48.088 310.536 48.6791 310.224 49.2118C309.913 49.7444 309.477 50.1667 308.919 50.4785C308.373 50.7773 307.756 50.9267 307.067 50.9267C306.366 50.9267 305.736 50.7773 305.177 50.4785C304.619 50.1667 304.183 49.7444 303.871 49.2118C303.56 48.6791 303.404 48.088 303.404 47.4385C303.404 46.7889 303.56 46.2043 303.871 45.6846C304.183 45.152 304.619 44.7362 305.177 44.4374C305.736 44.1256 306.366 43.9697 307.067 43.9697ZM310.789 71.2908H316.051V75.5H298.766V71.2908H304.631V59.0138H298.961V54.8046H310.789V71.2908ZM334.695 45.938C337.384 45.938 339.748 46.3732 341.788 47.2436L340.092 51.2579C338.715 50.7383 337.234 50.4785 335.649 50.4785C334.428 50.4785 333.551 50.6993 333.019 51.141C332.499 51.5827 332.239 52.3168 332.239 53.3431V56.1103H338.982L338.3 60.3779H332.239V75.5H326.12V60.3779H321.775V56.1103H326.12V53.1092C326.12 51.7321 326.445 50.5044 327.095 49.4262C327.757 48.3349 328.731 47.4839 330.018 46.8733C331.317 46.2497 332.876 45.938 334.695 45.938ZM358.073 45.938C360.763 45.938 363.127 46.3732 365.167 47.2436L363.471 51.2579C362.094 50.7383 360.613 50.4785 359.028 50.4785C357.807 50.4785 356.93 50.6993 356.398 51.141C355.878 51.5827 355.618 52.3168 355.618 53.3431V56.1103H362.361L361.679 60.3779H355.618V75.5H349.499V60.3779H345.153V56.1103H349.499V53.1092C349.499 51.7321 349.824 50.5044 350.473 49.4262C351.136 48.3349 352.11 47.4839 353.396 46.8733C354.696 46.2497 356.255 45.938 358.073 45.938ZM373.618 66.9451C373.813 68.5691 374.346 69.7643 375.216 70.5308C376.087 71.2973 377.211 71.6805 378.588 71.6805C380.342 71.6805 382.108 71.1089 383.888 69.9656L386.363 73.3174C385.337 74.2009 384.122 74.8959 382.719 75.4026C381.329 75.9092 379.789 76.1626 378.101 76.1626C375.788 76.1626 373.826 75.7014 372.215 74.779C370.604 73.8566 369.39 72.5704 368.571 70.9205C367.753 69.2576 367.344 67.3414 367.344 65.1718C367.344 63.1062 367.74 61.2354 368.532 59.5595C369.325 57.8836 370.481 56.5585 372.001 55.5841C373.521 54.6097 375.333 54.1226 377.438 54.1226C379.4 54.1226 381.108 54.5448 382.563 55.3892C384.031 56.2337 385.161 57.4549 385.954 59.0528C386.746 60.6508 387.143 62.5475 387.143 64.7431C387.143 65.5875 387.104 66.3215 387.026 66.9451H373.618ZM377.438 58.2538C376.308 58.2538 375.405 58.6631 374.729 59.4815C374.067 60.3 373.67 61.5537 373.541 63.2426H381.141C381.102 59.9168 379.867 58.2538 377.438 58.2538ZM407.462 54.181C408.696 54.181 409.833 54.3889 410.872 54.8046L409.723 63.4569H405.864V59.6374C404.721 59.8453 403.707 60.4689 402.824 61.5082C401.941 62.5475 401.246 63.8597 400.739 65.4446V71.3687H404.831V75.5H391.853V71.3687H394.581V58.8969H391.853V54.8046H399.277L400.408 59.4621C401.148 57.6822 402.09 56.3571 403.233 55.4867C404.39 54.6162 405.799 54.181 407.462 54.181ZM1206.36 56.0128C1205.64 56.2986 1204.8 56.5065 1203.83 56.6364C1202.86 56.7663 1201.72 56.8313 1200.4 56.8313C1201.73 57.4029 1202.73 58.1109 1203.4 58.9554C1204.06 59.7868 1204.39 60.8521 1204.39 62.1513C1204.39 63.4894 1204.03 64.6846 1203.3 65.7369C1202.59 66.7892 1201.57 67.6142 1200.24 68.2118C1198.92 68.7964 1197.38 69.0887 1195.62 69.0887C1194.76 69.0887 1193.97 69.0108 1193.22 68.8549C1193 68.9718 1192.84 69.1407 1192.72 69.3615C1192.6 69.5694 1192.54 69.7968 1192.54 70.0436C1192.54 70.4333 1192.7 70.7451 1193.01 70.979C1193.32 71.1998 1193.93 71.3103 1194.82 71.3103H1198.21C1199.79 71.3103 1201.17 71.5701 1202.36 72.0897C1203.56 72.5964 1204.48 73.3044 1205.13 74.2138C1205.78 75.1232 1206.11 76.1496 1206.11 77.2928C1206.11 78.7219 1205.69 79.9431 1204.86 80.9564C1204.03 81.9827 1202.78 82.7687 1201.12 83.3144C1199.47 83.86 1197.44 84.1328 1195.04 84.1328C1192.46 84.1328 1190.44 83.8665 1188.98 83.3338C1187.52 82.8142 1186.5 82.0737 1185.9 81.1123C1185.31 80.1509 1185.02 78.9427 1185.02 77.4877H1190.48C1190.48 78.1243 1190.6 78.6244 1190.85 78.9882C1191.11 79.365 1191.57 79.6378 1192.25 79.8067C1192.93 79.9885 1193.91 80.0795 1195.19 80.0795C1197.01 80.0795 1198.27 79.8716 1198.95 79.4559C1199.64 79.0532 1199.99 78.475 1199.99 77.7215C1199.99 77.085 1199.74 76.5848 1199.25 76.221C1198.75 75.8573 1198 75.6754 1196.99 75.6754H1193.69C1192.26 75.6754 1191.07 75.4935 1190.11 75.1297C1189.15 74.753 1188.44 74.2528 1187.98 73.6292C1187.53 73.0056 1187.3 72.3106 1187.3 71.5441C1187.3 70.7776 1187.5 70.0501 1187.9 69.3615C1188.32 68.673 1188.9 68.0949 1189.64 67.6272C1188.33 66.9386 1187.38 66.1202 1186.79 65.1718C1186.22 64.2234 1185.94 63.0672 1185.94 61.7031C1185.94 60.1831 1186.33 58.8515 1187.11 57.7082C1187.9 56.565 1189 55.688 1190.4 55.0774C1191.8 54.4668 1193.4 54.1615 1195.19 54.1615C1196.65 54.1875 1197.95 54.0901 1199.09 53.8692C1200.23 53.6354 1201.24 53.3301 1202.11 52.9533C1202.98 52.5636 1203.92 52.0764 1204.92 51.4918L1206.36 56.0128ZM1195.35 58.1564C1194.37 58.1564 1193.6 58.4682 1193.03 59.0918C1192.46 59.7024 1192.17 60.5468 1192.17 61.6251C1192.17 62.7424 1192.46 63.6128 1193.03 64.2364C1193.6 64.86 1194.37 65.1718 1195.35 65.1718C1196.38 65.1718 1197.15 64.8665 1197.69 64.2559C1198.23 63.6453 1198.51 62.7424 1198.51 61.5472C1198.51 60.4039 1198.24 59.553 1197.71 58.9944C1197.19 58.4357 1196.4 58.1564 1195.35 58.1564ZM1218.84 43.9697C1219.55 43.9697 1220.17 44.1256 1220.72 44.4374C1221.26 44.7362 1221.69 45.152 1222 45.6846C1222.31 46.2043 1222.47 46.7889 1222.47 47.4385C1222.47 48.088 1222.31 48.6791 1222 49.2118C1221.69 49.7444 1221.25 50.1667 1220.7 50.4785C1220.15 50.7773 1219.53 50.9267 1218.84 50.9267C1218.14 50.9267 1217.51 50.7773 1216.95 50.4785C1216.4 50.1667 1215.96 49.7444 1215.65 49.2118C1215.34 48.6791 1215.18 48.088 1215.18 47.4385C1215.18 46.7889 1215.34 46.2043 1215.65 45.6846C1215.96 45.152 1216.4 44.7362 1216.95 44.4374C1217.51 44.1256 1218.14 43.9697 1218.84 43.9697ZM1222.57 71.2908H1227.83V75.5H1210.54V71.2908H1216.41V59.0138H1210.74V54.8046H1222.57V71.2908ZM1251.93 74.2918C1251.06 74.8634 1250.04 75.3181 1248.89 75.6559C1247.75 75.9937 1246.5 76.1626 1245.15 76.1626C1242.5 76.1626 1240.5 75.487 1239.16 74.1359C1237.83 72.7848 1237.16 70.888 1237.16 68.4456V59.0528H1232.81V54.8046H1237.16V50.3226L1243.31 49.5821V54.8046H1249.98L1249.38 59.0528H1243.31V68.4456C1243.31 69.472 1243.54 70.206 1244 70.6477C1244.46 71.0894 1245.22 71.3103 1246.26 71.3103C1247.56 71.3103 1248.76 70.9985 1249.88 70.3749L1251.93 74.2918ZM1261.53 58.5851C1261.53 57.8576 1261.71 57.1821 1262.08 56.5585C1262.45 55.9349 1262.95 55.4347 1263.58 55.0579C1264.21 54.6812 1264.9 54.4928 1265.64 54.4928C1266.38 54.4928 1267.06 54.6812 1267.69 55.0579C1268.31 55.4347 1268.8 55.9349 1269.17 56.5585C1269.53 57.1821 1269.71 57.8576 1269.71 58.5851C1269.71 59.3127 1269.53 59.9882 1269.17 60.6118C1268.8 61.2354 1268.31 61.7356 1267.69 62.1123C1267.06 62.4761 1266.38 62.6579 1265.64 62.6579C1264.9 62.6579 1264.21 62.4761 1263.58 62.1123C1262.95 61.7356 1262.45 61.2354 1262.08 60.6118C1261.71 59.9882 1261.53 59.3127 1261.53 58.5851ZM1261.53 72.0508C1261.53 71.3232 1261.71 70.6542 1262.08 70.0436C1262.45 69.42 1262.95 68.9263 1263.58 68.5626C1264.21 68.1988 1264.9 68.0169 1265.64 68.0169C1266.38 68.0169 1267.06 68.1988 1267.69 68.5626C1268.31 68.9263 1268.8 69.42 1269.17 70.0436C1269.53 70.6542 1269.71 71.3232 1269.71 72.0508C1269.71 72.7913 1269.53 73.4798 1269.17 74.1164C1268.8 74.74 1268.31 75.2337 1267.69 75.5974C1267.06 75.9742 1266.38 76.1626 1265.64 76.1626C1264.9 76.1626 1264.21 75.9742 1263.58 75.5974C1262.95 75.2337 1262.45 74.74 1262.08 74.1164C1261.71 73.4798 1261.53 72.7913 1261.53 72.0508ZM1287.48 61.859C1287.48 64.0415 1287.71 65.9903 1288.16 67.7051C1288.62 69.42 1289.38 71.1154 1290.44 72.7913C1291.51 74.4672 1292.99 76.3379 1294.89 78.4036L1291.3 81.6385C1289.14 79.7807 1287.33 77.8709 1285.84 75.9092C1284.38 73.9475 1283.24 71.8104 1282.43 69.4979C1281.64 67.1725 1281.25 64.6262 1281.25 61.859C1281.25 59.0918 1281.64 56.552 1282.43 54.2395C1283.24 51.914 1284.38 49.7704 1285.84 47.8087C1287.33 45.847 1289.14 43.9373 1291.3 42.0795L1294.89 45.3144C1293.09 47.2631 1291.66 49.0884 1290.58 50.7903C1289.51 52.4791 1288.73 54.2135 1288.22 55.9933C1287.73 57.7602 1287.48 59.7154 1287.48 61.859ZM1454.21 61.859C1454.21 59.7154 1453.96 57.7602 1453.45 55.9933C1452.96 54.2135 1452.17 52.4791 1451.09 50.7903C1450.03 49.0884 1448.6 47.2631 1446.81 45.3144L1450.39 42.0795C1452.55 43.9373 1454.36 45.847 1455.83 47.8087C1457.31 49.7704 1458.45 51.914 1459.24 54.2395C1460.05 56.552 1460.45 59.0918 1460.45 61.859C1460.45 64.6262 1460.05 67.1725 1459.24 69.4979C1458.45 71.8104 1457.31 73.9475 1455.83 75.9092C1454.36 77.8709 1452.55 79.7807 1450.39 81.6385L1446.81 78.4036C1448.7 76.3379 1450.18 74.4672 1451.25 72.7913C1452.32 71.1154 1453.08 69.42 1453.53 67.7051C1453.98 65.9903 1454.21 64.0415 1454.21 61.859Z" fill="#61AFEF"/>
<path d="M454.298 71.0179C454.298 71.8234 454.428 72.421 454.687 72.8108C454.947 73.1875 455.376 73.4668 455.974 73.6487L455.175 75.9482C453.2 75.6884 451.946 74.727 451.414 73.0641C450.686 74.0125 449.764 74.7335 448.646 75.2272C447.542 75.7079 446.321 75.9482 444.983 75.9482C443.632 75.9482 442.456 75.6884 441.456 75.1687C440.455 74.6491 439.689 73.915 439.156 72.9667C438.624 72.0053 438.357 70.888 438.357 69.6149C438.357 67.4973 439.182 65.8733 440.832 64.7431C442.482 63.6128 444.866 63.0477 447.984 63.0477H451.004V61.3328C451.004 59.9038 450.589 58.8709 449.757 58.2344C448.926 57.5848 447.711 57.26 446.113 57.26C444.567 57.26 442.787 57.6108 440.774 58.3123L439.916 55.8374C442.203 54.98 444.437 54.5513 446.62 54.5513C449.127 54.5513 451.03 55.1424 452.33 56.3246C453.642 57.4938 454.298 59.1113 454.298 61.1769V71.0179ZM445.821 73.4538C446.834 73.4538 447.796 73.2005 448.705 72.6938C449.627 72.1742 450.394 71.4597 451.004 70.5503V65.2692H448.042C445.873 65.2692 444.301 65.6395 443.326 66.38C442.352 67.1205 441.865 68.1858 441.865 69.5759C441.865 72.1612 443.184 73.4538 445.821 73.4538ZM479.275 74.4672C478.586 74.9219 477.735 75.2791 476.722 75.539C475.721 75.8118 474.741 75.9482 473.779 75.9482C472.337 75.9482 471.096 75.6884 470.057 75.1687C469.031 74.6361 468.245 73.9021 467.699 72.9667C467.154 72.0313 466.881 70.9595 466.881 69.7513V57.5133H462.165V54.98H466.881V50.3226L470.155 49.9328V54.98H477.248L476.858 57.5133H470.155V69.7123C470.155 70.8815 470.46 71.7585 471.071 72.3431C471.694 72.9277 472.694 73.22 474.072 73.22C475.462 73.22 476.774 72.8952 478.008 72.2456L479.275 74.4672ZM634.411 45.3728C635.126 45.3728 635.704 45.5937 636.145 46.0354C636.587 46.4641 636.808 47.0032 636.808 47.6528C636.808 48.3284 636.587 48.887 636.145 49.3287C635.704 49.7704 635.126 49.9913 634.411 49.9913C633.723 49.9913 633.157 49.7704 632.716 49.3287C632.274 48.874 632.053 48.3154 632.053 47.6528C632.053 47.0032 632.274 46.4641 632.716 46.0354C633.157 45.5937 633.723 45.3728 634.411 45.3728ZM637.022 72.9082H642.81V75.5H627.415V72.9082H633.748V57.5718H627.61V54.98H637.022V72.9082ZM652.801 54.98L653.055 57.8251C653.873 56.7988 654.899 55.9998 656.134 55.4282C657.381 54.8436 658.615 54.5513 659.836 54.5513C661.798 54.5513 663.246 55.0709 664.182 56.1103C665.13 57.1496 665.604 58.6436 665.604 60.5923V75.5H662.33V63.0087C662.33 61.4757 662.246 60.3065 662.077 59.501C661.921 58.6956 661.59 58.0979 661.083 57.7082C660.59 57.3185 659.836 57.1236 658.823 57.1236C657.719 57.1236 656.673 57.4679 655.685 58.1564C654.711 58.832 653.912 59.6309 653.288 60.5533V75.5H650.015V54.98H652.801ZM1318.15 54.5513C1319.32 54.5513 1320.27 54.9605 1321.01 55.779C1321.75 56.5844 1322.12 58.0655 1322.12 60.2221V75.5H1319.08V60.7482C1319.08 59.7738 1319.05 59.0463 1318.99 58.5656C1318.92 58.072 1318.78 57.7082 1318.56 57.4744C1318.34 57.2275 1317.99 57.1041 1317.5 57.1041C1316.17 57.1041 1314.97 57.9226 1313.92 59.5595V75.5H1310.86V60.7482C1310.86 59.7738 1310.83 59.0463 1310.76 58.5656C1310.7 58.072 1310.55 57.7082 1310.33 57.4744C1310.11 57.2275 1309.76 57.1041 1309.28 57.1041C1307.94 57.1041 1306.75 57.9226 1305.7 59.5595V75.5H1302.68V54.98H1305.25L1305.44 57.3574C1306.07 56.461 1306.73 55.7725 1307.43 55.2918C1308.13 54.7981 1308.96 54.5513 1309.9 54.5513C1311.84 54.5513 1313.08 55.4542 1313.63 57.26C1314.24 56.3766 1314.89 55.7075 1315.6 55.2528C1316.31 54.7851 1317.16 54.5513 1318.15 54.5513ZM1342.7 71.0179C1342.7 71.8234 1342.83 72.421 1343.09 72.8108C1343.35 73.1875 1343.77 73.4668 1344.37 73.6487L1343.57 75.9482C1341.6 75.6884 1340.34 74.727 1339.81 73.0641C1339.08 74.0125 1338.16 74.7335 1337.04 75.2272C1335.94 75.7079 1334.72 75.9482 1333.38 75.9482C1332.03 75.9482 1330.85 75.6884 1329.85 75.1687C1328.85 74.6491 1328.09 73.915 1327.55 72.9667C1327.02 72.0053 1326.76 70.888 1326.76 69.6149C1326.76 67.4973 1327.58 65.8733 1329.23 64.7431C1330.88 63.6128 1333.26 63.0477 1336.38 63.0477H1339.4V61.3328C1339.4 59.9038 1338.99 58.8709 1338.16 58.2344C1337.32 57.5848 1336.11 57.26 1334.51 57.26C1332.97 57.26 1331.19 57.6108 1329.17 58.3123L1328.31 55.8374C1330.6 54.98 1332.84 54.5513 1335.02 54.5513C1337.53 54.5513 1339.43 55.1424 1340.73 56.3246C1342.04 57.4938 1342.7 59.1113 1342.7 61.1769V71.0179ZM1334.22 73.4538C1335.23 73.4538 1336.19 73.2005 1337.1 72.6938C1338.03 72.1742 1338.79 71.4597 1339.4 70.5503V65.2692H1336.44C1334.27 65.2692 1332.7 65.6395 1331.72 66.38C1330.75 67.1205 1330.26 68.1858 1330.26 69.5759C1330.26 72.1612 1331.58 73.4538 1334.22 73.4538ZM1359.16 45.3728C1359.87 45.3728 1360.45 45.5937 1360.89 46.0354C1361.33 46.4641 1361.55 47.0032 1361.55 47.6528C1361.55 48.3284 1361.33 48.887 1360.89 49.3287C1360.45 49.7704 1359.87 49.9913 1359.16 49.9913C1358.47 49.9913 1357.9 49.7704 1357.46 49.3287C1357.02 48.874 1356.8 48.3154 1356.8 47.6528C1356.8 47.0032 1357.02 46.4641 1357.46 46.0354C1357.9 45.5937 1358.47 45.3728 1359.16 45.3728ZM1361.77 72.9082H1367.56V75.5H1352.16V72.9082H1358.49V57.5718H1352.36V54.98H1361.77V72.9082ZM1377.55 54.98L1377.8 57.8251C1378.62 56.7988 1379.65 55.9998 1380.88 55.4282C1382.13 54.8436 1383.36 54.5513 1384.58 54.5513C1386.54 54.5513 1387.99 55.0709 1388.93 56.1103C1389.88 57.1496 1390.35 58.6436 1390.35 60.5923V75.5H1387.08V63.0087C1387.08 61.4757 1386.99 60.3065 1386.82 59.501C1386.67 58.6956 1386.34 58.0979 1385.83 57.7082C1385.34 57.3185 1384.58 57.1236 1383.57 57.1236C1382.46 57.1236 1381.42 57.4679 1380.43 58.1564C1379.46 58.832 1378.66 59.6309 1378.03 60.5533V75.5H1374.76V54.98H1377.55ZM1641.57 75.5H1637.77L1630.37 54.98H1633.84L1639.78 72.5185L1645.65 54.98H1649.04L1641.57 75.5ZM1657.88 66.3995C1657.93 67.9325 1658.23 69.2121 1658.78 70.2385C1659.32 71.2518 1660.04 72.0053 1660.92 72.499C1661.8 72.9797 1662.79 73.22 1663.88 73.22C1664.9 73.22 1665.82 73.0706 1666.67 72.7718C1667.53 72.473 1668.42 72.0053 1669.36 71.3687L1670.9 73.5318C1669.94 74.2853 1668.83 74.8764 1667.58 75.3051C1666.35 75.7338 1665.1 75.9482 1663.84 75.9482C1661.88 75.9482 1660.19 75.5065 1658.78 74.6231C1657.36 73.7397 1656.28 72.4925 1655.54 70.8815C1654.81 69.2706 1654.45 67.3998 1654.45 65.2692C1654.45 63.2036 1654.82 61.3588 1655.56 59.7349C1656.3 58.1109 1657.35 56.8443 1658.7 55.9349C1660.05 55.0125 1661.62 54.5513 1663.41 54.5513C1665.13 54.5513 1666.61 54.954 1667.86 55.7595C1669.12 56.565 1670.08 57.7277 1670.74 59.2477C1671.42 60.7547 1671.75 62.541 1671.75 64.6067C1671.75 65.2043 1671.73 65.8019 1671.68 66.3995H1657.88ZM1663.45 57.2405C1661.87 57.2405 1660.58 57.7991 1659.58 58.9164C1658.59 60.0207 1658.03 61.6706 1657.9 63.8662H1668.6C1668.56 61.7096 1668.08 60.0662 1667.18 58.9359C1666.27 57.8056 1665.03 57.2405 1663.45 57.2405ZM1681.47 54.98L1681.73 57.8251C1682.54 56.7988 1683.57 55.9998 1684.81 55.4282C1686.05 54.8436 1687.29 54.5513 1688.51 54.5513C1690.47 54.5513 1691.92 55.0709 1692.85 56.1103C1693.8 57.1496 1694.28 58.6436 1694.28 60.5923V75.5H1691V63.0087C1691 61.4757 1690.92 60.3065 1690.75 59.501C1690.59 58.6956 1690.26 58.0979 1689.76 57.7082C1689.26 57.3185 1688.51 57.1236 1687.49 57.1236C1686.39 57.1236 1685.34 57.4679 1684.36 58.1564C1683.38 58.832 1682.58 59.6309 1681.96 60.5533V75.5H1678.69V54.98H1681.47ZM1711.71 75.5H1707.91L1700.51 54.98H1703.98L1709.92 72.5185L1715.78 54.98H1719.18L1711.71 75.5Z" fill="#ABB2BF"/>
<path d="M523.85 54.1226C525.331 54.1226 526.422 54.6032 527.124 55.5646C527.825 56.526 528.176 58.0655 528.176 60.1831V75.5H522.895V60.8846C522.895 60.1441 522.824 59.6309 522.681 59.3451C522.538 59.0463 522.265 58.8969 521.862 58.8969C521.511 58.8969 521.161 59.0009 520.81 59.2087C520.472 59.4036 520.108 59.7479 519.719 60.2415V75.5H515.392V60.8846C515.392 60.1441 515.321 59.6309 515.178 59.3451C515.035 59.0463 514.762 58.8969 514.36 58.8969C514.009 58.8969 513.658 59.0009 513.307 59.2087C512.97 59.4036 512.606 59.7479 512.216 60.2415V75.5H506.857V54.8046H511.378L511.787 56.8118C512.463 55.8894 513.132 55.2138 513.794 54.7851C514.457 54.3434 515.23 54.1226 516.113 54.1226C516.919 54.1226 517.588 54.3239 518.121 54.7267C518.666 55.1294 519.056 55.7465 519.29 56.5779C520.706 54.941 522.226 54.1226 523.85 54.1226ZM540.856 43.9697C541.558 43.9697 542.182 44.1256 542.727 44.4374C543.273 44.7362 543.702 45.152 544.013 45.6846C544.325 46.2043 544.481 46.7889 544.481 47.4385C544.481 48.088 544.325 48.6791 544.013 49.2118C543.702 49.7444 543.266 50.1667 542.708 50.4785C542.162 50.7773 541.545 50.9267 540.856 50.9267C540.155 50.9267 539.525 50.7773 538.966 50.4785C538.408 50.1667 537.972 49.7444 537.661 49.2118C537.349 48.6791 537.193 48.088 537.193 47.4385C537.193 46.7889 537.349 46.2043 537.661 45.6846C537.972 45.152 538.408 44.7362 538.966 44.4374C539.525 44.1256 540.155 43.9697 540.856 43.9697ZM544.579 71.2908H549.84V75.5H532.555V71.2908H538.421V59.0138H532.75V54.8046H544.579V71.2908ZM560.689 54.8046L561.117 57.2015C562.053 56.1492 563.034 55.3762 564.06 54.8826C565.086 54.3759 566.249 54.1226 567.548 54.1226C569.328 54.1226 570.718 54.6682 571.718 55.7595C572.732 56.8378 573.238 58.3513 573.238 60.3V75.5H567.08V62.0733C567.08 61.2159 567.016 60.5403 566.886 60.0467C566.769 59.553 566.567 59.2022 566.282 58.9944C565.996 58.7735 565.599 58.6631 565.093 58.6631C564.469 58.6631 563.859 58.8644 563.261 59.2672C562.676 59.6569 562.079 60.2415 561.468 61.021V75.5H555.31V54.8046H560.689ZM597.319 74.2918C596.448 74.8634 595.435 75.3181 594.279 75.6559C593.136 75.9937 591.888 76.1626 590.537 76.1626C587.887 76.1626 585.893 75.487 584.555 74.1359C583.217 72.7848 582.548 70.888 582.548 68.4456V59.0528H578.202V54.8046H582.548V50.3226L588.706 49.5821V54.8046H595.37L594.766 59.0528H588.706V68.4456C588.706 69.472 588.933 70.206 589.388 70.6477C589.855 71.0894 590.609 71.3103 591.648 71.3103C592.947 71.3103 594.155 70.9985 595.273 70.3749L597.319 74.2918Z" fill="#C678DD"/>
<path d="M704.548 54.1226C706.639 54.1226 708.439 54.5773 709.946 55.4867C711.466 56.3831 712.622 57.6562 713.414 59.3062C714.207 60.9561 714.603 62.8853 714.603 65.0938C714.603 67.3933 714.2 69.3745 713.395 71.0374C712.602 72.6874 711.453 73.954 709.946 74.8374C708.439 75.7209 706.639 76.1626 704.548 76.1626C702.443 76.1626 700.637 75.7274 699.13 74.8569C697.623 73.9865 696.474 72.7263 695.681 71.0764C694.889 69.4135 694.492 67.4323 694.492 65.1328C694.492 62.9373 694.889 61.0145 695.681 59.3646C696.487 57.7017 697.643 56.4156 699.15 55.5062C700.67 54.5838 702.469 54.1226 704.548 54.1226ZM704.548 58.6631C703.288 58.6631 702.352 59.1827 701.742 60.2221C701.144 61.2614 700.845 62.8983 700.845 65.1328C700.845 67.4063 701.144 69.0627 701.742 70.1021C702.339 71.1284 703.275 71.6415 704.548 71.6415C705.821 71.6415 706.756 71.1219 707.354 70.0826C707.952 69.0432 708.25 67.3803 708.25 65.0938C708.25 62.8723 707.945 61.2484 707.334 60.2221C706.737 59.1827 705.808 58.6631 704.548 58.6631ZM725.121 56.8508C726.848 55.032 728.875 54.1226 731.201 54.1226C733.032 54.1226 734.435 54.6617 735.41 55.74C736.397 56.8053 736.891 58.3253 736.891 60.3V75.5H730.733V62.0149C730.733 61.1704 730.668 60.5079 730.538 60.0272C730.421 59.5465 730.22 59.2022 729.934 58.9944C729.648 58.7735 729.252 58.6631 728.745 58.6631C728.122 58.6631 727.517 58.8774 726.933 59.3062C726.348 59.7349 725.744 60.3585 725.121 61.1769V75.5H718.963V46.581L725.121 45.9769V56.8508ZM757.639 54.1226C759.12 54.1226 760.211 54.6032 760.913 55.5646C761.614 56.526 761.965 58.0655 761.965 60.1831V75.5H756.684V60.8846C756.684 60.1441 756.613 59.6309 756.47 59.3451C756.327 59.0463 756.054 58.8969 755.651 58.8969C755.3 58.8969 754.95 59.0009 754.599 59.2087C754.261 59.4036 753.897 59.7479 753.508 60.2415V75.5H749.181V60.8846C749.181 60.1441 749.11 59.6309 748.967 59.3451C748.824 59.0463 748.551 58.8969 748.149 58.8969C747.798 58.8969 747.447 59.0009 747.096 59.2087C746.759 59.4036 746.395 59.7479 746.005 60.2415V75.5H740.646V54.8046H745.167L745.576 56.8118C746.252 55.8894 746.921 55.2138 747.584 54.7851C748.246 54.3434 749.019 54.1226 749.903 54.1226C750.708 54.1226 751.377 54.3239 751.91 54.7267C752.455 55.1294 752.845 55.7465 753.079 56.5779C754.495 54.941 756.015 54.1226 757.639 54.1226ZM778.387 75.5C777.452 78.2932 776.062 80.3913 774.217 81.7944C772.372 83.2104 769.897 84.0029 766.792 84.1718L766.091 79.8262C767.442 79.6573 768.533 79.4039 769.364 79.0662C770.209 78.7414 770.884 78.2932 771.391 77.7215C771.911 77.1629 772.366 76.4224 772.755 75.5H770.651L764.083 54.8046H770.592L774.607 71.5636L778.972 54.8046H785.286L778.387 75.5ZM806.813 70.8426L806.229 75.5H789.177V71.1544L799.447 59.4426H790.035V54.8046H806.618V59.1308L796.446 70.8426H806.813ZM820.78 71.7585C821.832 71.7585 822.664 71.5961 823.274 71.2713C823.898 70.9335 824.209 70.4463 824.209 69.8097C824.209 69.355 824.086 68.9848 823.839 68.699C823.592 68.4002 823.131 68.1209 822.456 67.861C821.78 67.5882 820.728 67.2569 819.299 66.8672C817.22 66.3085 815.629 65.5421 814.524 64.5677C813.433 63.5933 812.887 62.2422 812.887 60.5144C812.887 59.2672 813.232 58.1629 813.92 57.2015C814.622 56.2402 815.648 55.4867 816.999 54.941C818.35 54.3954 819.974 54.1226 821.871 54.1226C825.158 54.1226 827.951 54.9605 830.251 56.6364L827.795 60.261C826.899 59.7154 825.957 59.2867 824.969 58.9749C823.995 58.6631 823.021 58.5072 822.046 58.5072C821.046 58.5072 820.299 58.6436 819.805 58.9164C819.325 59.1762 819.084 59.5725 819.084 60.1051C819.084 60.4689 819.208 60.7742 819.455 61.021C819.714 61.2679 820.176 61.5212 820.838 61.781C821.514 62.0409 822.56 62.3721 823.976 62.7749C825.47 63.1906 826.684 63.6518 827.62 64.1585C828.555 64.6521 829.283 65.3147 829.802 66.1462C830.335 66.9646 830.601 68.0234 830.601 69.3226C830.601 70.7776 830.16 72.0248 829.276 73.0641C828.406 74.0904 827.23 74.8634 825.749 75.3831C824.268 75.9027 822.625 76.1626 820.819 76.1626C818.883 76.1626 817.142 75.8897 815.596 75.3441C814.05 74.7855 812.719 74.019 811.601 73.0446L814.7 69.5759C815.557 70.2515 816.499 70.7841 817.525 71.1738C818.552 71.5636 819.636 71.7585 820.78 71.7585ZM842.015 56.8508C843.743 55.032 845.77 54.1226 848.095 54.1226C849.927 54.1226 851.33 54.6617 852.304 55.74C853.292 56.8053 853.785 58.3253 853.785 60.3V75.5H847.627V62.0149C847.627 61.1704 847.562 60.5079 847.432 60.0272C847.316 59.5465 847.114 59.2022 846.828 58.9944C846.543 58.7735 846.146 58.6631 845.64 58.6631C845.016 58.6631 844.412 58.8774 843.827 59.3062C843.243 59.7349 842.639 60.3585 842.015 61.1769V75.5H835.857V46.581L842.015 45.9769V56.8508ZM859.762 62.4631H876.638V67.2569H859.762V62.4631ZM897.912 54.1226C899.393 54.1226 900.485 54.6032 901.186 55.5646C901.888 56.526 902.239 58.0655 902.239 60.1831V75.5H896.957V60.8846C896.957 60.1441 896.886 59.6309 896.743 59.3451C896.6 59.0463 896.327 58.8969 895.925 58.8969C895.574 58.8969 895.223 59.0009 894.872 59.2087C894.535 59.4036 894.171 59.7479 893.781 60.2415V75.5H889.455V60.8846C889.455 60.1441 889.383 59.6309 889.241 59.3451C889.098 59.0463 888.825 58.8969 888.422 58.8969C888.071 58.8969 887.721 59.0009 887.37 59.2087C887.032 59.4036 886.668 59.7479 886.279 60.2415V75.5H880.92V54.8046H885.441L885.85 56.8118C886.525 55.8894 887.194 55.2138 887.857 54.7851C888.52 54.3434 889.293 54.1226 890.176 54.1226C890.981 54.1226 891.65 54.3239 892.183 54.7267C892.729 55.1294 893.119 55.7465 893.352 56.5779C894.768 54.941 896.288 54.1226 897.912 54.1226ZM914.919 43.9697C915.62 43.9697 916.244 44.1256 916.79 44.4374C917.335 44.7362 917.764 45.152 918.076 45.6846C918.388 46.2043 918.544 46.7889 918.544 47.4385C918.544 48.088 918.388 48.6791 918.076 49.2118C917.764 49.7444 917.329 50.1667 916.77 50.4785C916.225 50.7773 915.608 50.9267 914.919 50.9267C914.217 50.9267 913.587 50.7773 913.029 50.4785C912.47 50.1667 912.035 49.7444 911.723 49.2118C911.411 48.6791 911.255 48.088 911.255 47.4385C911.255 46.7889 911.411 46.2043 911.723 45.6846C912.035 45.152 912.47 44.7362 913.029 44.4374C913.587 44.1256 914.217 43.9697 914.919 43.9697ZM918.641 71.2908H923.903V75.5H906.617V71.2908H912.483V59.0138H906.812V54.8046H918.641V71.2908ZM945.177 54.181C946.411 54.181 947.548 54.3889 948.587 54.8046L947.437 63.4569H943.579V59.6374C942.436 59.8453 941.422 60.4689 940.539 61.5082C939.655 62.5475 938.96 63.8597 938.454 65.4446V71.3687H942.546V75.5H929.568V71.3687H932.296V58.8969H929.568V54.8046H936.992L938.122 59.4621C938.863 57.6822 939.805 56.3571 940.948 55.4867C942.104 54.6162 943.514 54.181 945.177 54.181ZM970.173 69.5369C970.173 70.3034 970.277 70.8685 970.485 71.2323C970.693 71.5831 971.044 71.8494 971.537 72.0313L970.271 76.0846C969.01 75.9677 967.965 75.6949 967.133 75.2662C966.315 74.8244 965.672 74.1879 965.204 73.3564C964.437 74.2788 963.444 74.9803 962.222 75.461C961.014 75.9287 959.735 76.1626 958.383 76.1626C956.98 76.1626 955.746 75.8897 954.681 75.3441C953.629 74.7855 952.817 74.019 952.245 73.0446C951.673 72.0573 951.388 70.927 951.388 69.6538C951.388 68.1728 951.784 66.9062 952.576 65.8538C953.369 64.8015 954.518 64.0026 956.025 63.4569C957.532 62.8983 959.345 62.619 961.462 62.619H964.249V61.8395C964.249 59.7219 962.885 58.6631 960.157 58.6631C959.468 58.6631 958.598 58.7605 957.545 58.9554C956.506 59.1503 955.486 59.4166 954.486 59.7544L953.063 55.6621C954.363 55.1684 955.733 54.7916 957.175 54.5318C958.617 54.259 959.936 54.1226 961.131 54.1226C964.171 54.1226 966.438 54.7397 967.932 55.9738C969.426 57.208 970.173 59.0268 970.173 61.4303V69.5369ZM960.508 71.7585C961.209 71.7585 961.917 71.5571 962.632 71.1544C963.346 70.7386 963.885 70.18 964.249 69.4785V66.1267H962.729C961.04 66.1267 959.787 66.3865 958.968 66.9062C958.15 67.4258 957.74 68.1988 957.74 69.2251C957.74 70.0306 957.981 70.6542 958.461 71.0959C958.955 71.5376 959.637 71.7585 960.508 71.7585ZM995.949 56.0128C995.234 56.2986 994.39 56.5065 993.416 56.6364C992.454 56.7663 991.311 56.8313 989.986 56.8313C991.324 57.4029 992.324 58.1109 992.987 58.9554C993.65 59.7868 993.981 60.8521 993.981 62.1513C993.981 63.4894 993.617 64.6846 992.89 65.7369C992.175 66.7892 991.155 67.6142 989.83 68.2118C988.505 68.7964 986.965 69.0887 985.212 69.0887C984.354 69.0887 983.555 69.0108 982.815 68.8549C982.594 68.9718 982.425 69.1407 982.308 69.3615C982.191 69.5694 982.133 69.7968 982.133 70.0436C982.133 70.4333 982.288 70.7451 982.6 70.979C982.912 71.1998 983.516 71.3103 984.413 71.3103H987.803C989.375 71.3103 990.759 71.5701 991.954 72.0897C993.149 72.5964 994.072 73.3044 994.721 74.2138C995.371 75.1232 995.696 76.1496 995.696 77.2928C995.696 78.7219 995.28 79.9431 994.448 80.9564C993.617 81.9827 992.37 82.7687 990.707 83.3144C989.057 83.86 987.03 84.1328 984.627 84.1328C982.055 84.1328 980.034 83.8665 978.566 83.3338C977.111 82.8142 976.085 82.0737 975.487 81.1123C974.903 80.1509 974.611 78.9427 974.611 77.4877H980.067C980.067 78.1243 980.19 78.6244 980.437 78.9882C980.697 79.365 981.165 79.6378 981.84 79.8067C982.516 79.9885 983.497 80.0795 984.783 80.0795C986.602 80.0795 987.855 79.8716 988.544 79.4559C989.232 79.0532 989.577 78.475 989.577 77.7215C989.577 77.085 989.33 76.5848 988.836 76.221C988.343 75.8573 987.589 75.6754 986.576 75.6754H983.282C981.853 75.6754 980.658 75.4935 979.697 75.1297C978.735 74.753 978.027 74.2528 977.573 73.6292C977.118 73.0056 976.891 72.3106 976.891 71.5441C976.891 70.7776 977.092 70.0501 977.495 69.3615C977.91 68.673 978.488 68.0949 979.229 67.6272C977.917 66.9386 976.968 66.1202 976.384 65.1718C975.812 64.2234 975.526 63.0672 975.526 61.7031C975.526 60.1831 975.916 58.8515 976.696 57.7082C977.488 56.565 978.586 55.688 979.989 55.0774C981.392 54.4668 982.99 54.1615 984.783 54.1615C986.238 54.1875 987.537 54.0901 988.68 53.8692C989.824 53.6354 990.83 53.3301 991.701 52.9533C992.571 52.5636 993.507 52.0764 994.507 51.4918L995.949 56.0128ZM984.939 58.1564C983.964 58.1564 983.191 58.4682 982.62 59.0918C982.048 59.7024 981.762 60.5468 981.762 61.6251C981.762 62.7424 982.048 63.6128 982.62 64.2364C983.191 64.86 983.964 65.1718 984.939 65.1718C985.965 65.1718 986.745 64.8665 987.277 64.2559C987.823 63.6453 988.096 62.7424 988.096 61.5472C988.096 60.4039 987.829 59.553 987.297 58.9944C986.777 58.4357 985.991 58.1564 984.939 58.1564ZM1004.85 66.9451C1005.04 68.5691 1005.58 69.7643 1006.45 70.5308C1007.32 71.2973 1008.44 71.6805 1009.82 71.6805C1011.57 71.6805 1013.34 71.1089 1015.12 69.9656L1017.59 73.3174C1016.57 74.2009 1015.35 74.8959 1013.95 75.4026C1012.56 75.9092 1011.02 76.1626 1009.33 76.1626C1007.02 76.1626 1005.06 75.7014 1003.45 74.779C1001.83 73.8566 1000.62 72.5704 999.802 70.9205C998.983 69.2576 998.574 67.3414 998.574 65.1718C998.574 63.1062 998.97 61.2354 999.763 59.5595C1000.56 57.8836 1001.71 56.5585 1003.23 55.5841C1004.75 54.6097 1006.56 54.1226 1008.67 54.1226C1010.63 54.1226 1012.34 54.5448 1013.79 55.3892C1015.26 56.2337 1016.39 57.4549 1017.18 59.0528C1017.98 60.6508 1018.37 62.5475 1018.37 64.7431C1018.37 65.5875 1018.33 66.3215 1018.26 66.9451H1004.85ZM1008.67 58.2538C1007.54 58.2538 1006.64 58.6631 1005.96 59.4815C1005.3 60.3 1004.9 61.5537 1004.77 63.2426H1012.37C1012.33 59.9168 1011.1 58.2538 1008.67 58.2538ZM1023.41 62.4631H1040.29V67.2569H1023.41V62.4631ZM1064.9 74.2918C1064.03 74.8634 1063.01 75.3181 1061.86 75.6559C1060.71 75.9937 1059.47 76.1626 1058.12 76.1626C1055.47 76.1626 1053.47 75.487 1052.13 74.1359C1050.79 72.7848 1050.13 70.888 1050.13 68.4456V59.0528H1045.78V54.8046H1050.13V50.3226L1056.28 49.5821V54.8046H1062.95L1062.34 59.0528H1056.28V68.4456C1056.28 69.472 1056.51 70.206 1056.97 70.6477C1057.43 71.0894 1058.19 71.3103 1059.23 71.3103C1060.53 71.3103 1061.73 70.9985 1062.85 70.3749L1064.9 74.2918ZM1075.8 56.8508C1077.53 55.032 1079.56 54.1226 1081.88 54.1226C1083.72 54.1226 1085.12 54.6617 1086.09 55.74C1087.08 56.8053 1087.57 58.3253 1087.57 60.3V75.5H1081.42V62.0149C1081.42 61.1704 1081.35 60.5079 1081.22 60.0272C1081.1 59.5465 1080.9 59.2022 1080.62 58.9944C1080.33 58.7735 1079.94 58.6631 1079.43 58.6631C1078.81 58.6631 1078.2 58.8774 1077.62 59.3062C1077.03 59.7349 1076.43 60.3585 1075.8 61.1769V75.5H1069.65V46.581L1075.8 45.9769V56.8508ZM1098.36 66.9451C1098.56 68.5691 1099.09 69.7643 1099.96 70.5308C1100.83 71.2973 1101.96 71.6805 1103.33 71.6805C1105.09 71.6805 1106.85 71.1089 1108.63 69.9656L1111.11 73.3174C1110.08 74.2009 1108.87 74.8959 1107.47 75.4026C1106.07 75.9092 1104.54 76.1626 1102.85 76.1626C1100.53 76.1626 1098.57 75.7014 1096.96 74.779C1095.35 73.8566 1094.14 72.5704 1093.32 70.9205C1092.5 69.2576 1092.09 67.3414 1092.09 65.1718C1092.09 63.1062 1092.49 61.2354 1093.28 59.5595C1094.07 57.8836 1095.23 56.5585 1096.75 55.5841C1098.27 54.6097 1100.08 54.1226 1102.18 54.1226C1104.15 54.1226 1105.85 54.5448 1107.31 55.3892C1108.78 56.2337 1109.91 57.4549 1110.7 59.0528C1111.49 60.6508 1111.89 62.5475 1111.89 64.7431C1111.89 65.5875 1111.85 66.3215 1111.77 66.9451H1098.36ZM1102.18 58.2538C1101.05 58.2538 1100.15 58.6631 1099.48 59.4815C1098.81 60.3 1098.42 61.5537 1098.29 63.2426H1105.89C1105.85 59.9168 1104.61 58.2538 1102.18 58.2538ZM1131.7 54.1226C1133.18 54.1226 1134.27 54.6032 1134.98 55.5646C1135.68 56.526 1136.03 58.0655 1136.03 60.1831V75.5H1130.75V60.8846C1130.75 60.1441 1130.68 59.6309 1130.53 59.3451C1130.39 59.0463 1130.12 58.8969 1129.71 58.8969C1129.36 58.8969 1129.01 59.0009 1128.66 59.2087C1128.32 59.4036 1127.96 59.7479 1127.57 60.2415V75.5H1123.24V60.8846C1123.24 60.1441 1123.17 59.6309 1123.03 59.3451C1122.89 59.0463 1122.61 58.8969 1122.21 58.8969C1121.86 58.8969 1121.51 59.0009 1121.16 59.2087C1120.82 59.4036 1120.46 59.7479 1120.07 60.2415V75.5H1114.71V54.8046H1119.23L1119.64 56.8118C1120.31 55.8894 1120.98 55.2138 1121.65 54.7851C1122.31 54.3434 1123.08 54.1226 1123.97 54.1226C1124.77 54.1226 1125.44 54.3239 1125.97 54.7267C1126.52 55.1294 1126.91 55.7465 1127.14 56.5779C1128.56 54.941 1130.08 54.1226 1131.7 54.1226ZM1145.12 66.9451C1145.32 68.5691 1145.85 69.7643 1146.72 70.5308C1147.59 71.2973 1148.71 71.6805 1150.09 71.6805C1151.85 71.6805 1153.61 71.1089 1155.39 69.9656L1157.87 73.3174C1156.84 74.2009 1155.63 74.8959 1154.22 75.4026C1152.83 75.9092 1151.29 76.1626 1149.6 76.1626C1147.29 76.1626 1145.33 75.7014 1143.72 74.779C1142.11 73.8566 1140.89 72.5704 1140.08 70.9205C1139.26 69.2576 1138.85 67.3414 1138.85 65.1718C1138.85 63.1062 1139.24 61.2354 1140.04 59.5595C1140.83 57.8836 1141.98 56.5585 1143.5 55.5841C1145.02 54.6097 1146.84 54.1226 1148.94 54.1226C1150.9 54.1226 1152.61 54.5448 1154.07 55.3892C1155.54 56.2337 1156.67 57.4549 1157.46 59.0528C1158.25 60.6508 1158.65 62.5475 1158.65 64.7431C1158.65 65.5875 1158.61 66.3215 1158.53 66.9451H1145.12ZM1148.94 58.2538C1147.81 58.2538 1146.91 58.6631 1146.23 59.4815C1145.57 60.3 1145.17 61.5537 1145.04 63.2426H1152.64C1152.61 59.9168 1151.37 58.2538 1148.94 58.2538Z" fill="#56B6C2"/>
</svg>
